HIERARCHY
ROOT hip
{
  OFFSET 0 0 0
  CHANNELS 6 Xposition Yposition Zposition Zrotation Yrotation Xrotation
  JOINT abdomen
  {
    OFFSET 0 20.6881 -0.73152
    CHANNELS 3 Zrotation Xrotation Yrotation
    JOINT chest
    {
      OFFSET 0 11.7043 -0.48768
      CHANNELS 3 Zrotation Xrotation Yrotation
      JOINT neck
      {
        OFFSET 0 22.1894 -2.19456
        CHANNELS 3 Zrotation Xrotation Yrotation
        JOINT head
        {
          OFFSET -0.24384 7.07133 1.2192
          CHANNELS 3 Zrotation Xrotation Yrotation
          JOINT leftEye
          {
            OFFSET 4.14528 8.04674 8.04672
            CHANNELS 3 Zrotation Xrotation Yrotation
            End Site
            {
              OFFSET 1 0 0
            }
          }
          JOINT rightEye
          {
            OFFSET -3.6576 8.04674 8.04672
            CHANNELS 3 Zrotation Xrotation Yrotation
            End Site
            {
              OFFSET 1 0 0
            }
          }
        }
      }
      JOINT rCollar
      {
        OFFSET -2.68224 19.2634 -4.8768
        CHANNELS 3 Zrotation Xrotation Yrotation
        JOINT rShldr
        {
          OFFSET -8.77824 -1.95073 1.46304
          CHANNELS 3 Zrotation Xrotation Yrotation
          JOINT rForeArm
          {
            OFFSET -28.1742 -1.7115 0.48768
            CHANNELS 3 Zrotation Xrotation Yrotation
            JOINT rHand
            {
              OFFSET -22.5879 0.773209 7.07136
              CHANNELS 3 Zrotation Xrotation Yrotation
              JOINT rThumb1
              {
                OFFSET -1.2192 -0.487915 3.41376
                CHANNELS 3 Zrotation Xrotation Yrotation
                JOINT rThumb2
                {
                  OFFSET -3.37035 -0.52449 3.41376
                  CHANNELS 3 Zrotation Xrotation Yrotation
                  End Site
                  {
                    OFFSET -1.78271 -1.18214 1.43049
                  }
                }
              }
              JOINT rIndex1
              {
                OFFSET -7.75947 0.938293 5.60832
                CHANNELS 3 Zrotation Xrotation Yrotation
                JOINT rIndex2
                {
                  OFFSET -2.54057 -0.884171 1.56538
                  CHANNELS 3 Zrotation Xrotation Yrotation
                  End Site
                  {
                    OFFSET -1.62519 -0.234802 1.16502
                  }
                }
              }
              JOINT rMid1
              {
                OFFSET -8.24714 1.18213 3.41376
                CHANNELS 3 Zrotation Xrotation Yrotation
                JOINT rMid2
                {
                  OFFSET -3.10165 -0.590103 1.0647
                  CHANNELS 3 Zrotation Xrotation Yrotation
                  End Site
                  {
                    OFFSET -2.48547 -0.328903 0.83742
                  }
                }
              }
              JOINT rRing1
              {
                OFFSET -8.82822 0.546677 1.51678
                CHANNELS 3 Zrotation Xrotation Yrotation
                JOINT rRing2
                {
                  OFFSET -2.60934 -0.819778 -0.0198488
                  CHANNELS 3 Zrotation Xrotation Yrotation
                  End Site
                  {
                    OFFSET -2.33842 -0.294052 0.168128
                  }
                }
              }
              JOINT rPinky1
              {
                OFFSET -8.27202 -0.0477905 -0.4584
                CHANNELS 3 Zrotation Xrotation Yrotation
                JOINT rPinky2
                {
                  OFFSET -1.82734 -0.647385 -0.700984
                  CHANNELS 3 Zrotation Xrotation Yrotation
                  End Site
                  {
                    OFFSET -1.69225 -0.51767 -0.607171
                  }
                }
              }
            }
          }
        }
      }
      JOINT lCollar
      {
        OFFSET 2.68224 19.2634 -4.8768
        CHANNELS 3 Zrotation Xrotation Yrotation
        JOINT lShldr
        {
          OFFSET 8.77824 -1.95073 1.46304
          CHANNELS 3 Zrotation Xrotation Yrotation
          JOINT lForeArm
          {
            OFFSET 28.1742 -1.7115 0.48768
            CHANNELS 3 Zrotation Xrotation Yrotation
            JOINT lHand
            {
              OFFSET 22.5879 0.773209 7.07136
              CHANNELS 3 Zrotation Xrotation Yrotation
              JOINT lThumb1
              {
                OFFSET 1.2192 -0.487915 3.41376
                CHANNELS 3 Zrotation Xrotation Yrotation
                JOINT lThumb2
                {
                  OFFSET 3.37035 -0.52449 3.41376
                  CHANNELS 3 Zrotation Xrotation Yrotation
                  End Site
                  {
                    OFFSET 1.78271 -1.18214 1.43049
                  }
                }
              }
              JOINT lIndex1
              {
                OFFSET 7.75947 0.938293 5.60832
                CHANNELS 3 Zrotation Xrotation Yrotation
                JOINT lIndex2
                {
                  OFFSET 2.54057 -0.884171 1.56538
                  CHANNELS 3 Zrotation Xrotation Yrotation
                  End Site
                  {
                    OFFSET 1.62519 -0.234802 1.16502
                  }
                }
              }
              JOINT lMid1
              {
                OFFSET 8.24714 1.18213 3.41376
                CHANNELS 3 Zrotation Xrotation Yrotation
                JOINT lMid2
                {
                  OFFSET 3.10165 -0.590103 1.0647
                  CHANNELS 3 Zrotation Xrotation Yrotation
                  End Site
                  {
                    OFFSET 2.48547 -0.328903 0.83742
                  }
                }
              }
              JOINT lRing1
              {
                OFFSET 8.82822 0.546677 1.51678
                CHANNELS 3 Zrotation Xrotation Yrotation
                JOINT lRing2
                {
                  OFFSET 2.60934 -0.819778 -0.0198488
                  CHANNELS 3 Zrotation Xrotation Yrotation
                  End Site
                  {
                    OFFSET 2.33842 -0.294052 0.168128
                  }
                }
              }
              JOINT lPinky1
              {
                OFFSET 8.27202 -0.0477905 -0.4584
                CHANNELS 3 Zrotation Xrotation Yrotation
                JOINT lPinky2
                {
                  OFFSET 1.82734 -0.647385 -0.700984
                  CHANNELS 3 Zrotation Xrotation Yrotation
                  End Site
                  {
                    OFFSET 1.69225 -0.51767 -0.607171
                  }
                }
              }
            }
          }
        }
      }
    }
  }
  JOINT rButtock
  {
    OFFSET -8.77824 4.35084 1.2192
    CHANNELS 3 Zrotation Xrotation Yrotation
    JOINT rThigh
    {
      OFFSET 0 -1.70687 -2.19456
      CHANNELS 3 Zrotation Xrotation Yrotation
      JOINT rShin
      {
        OFFSET 0 -36.8199 0.73152
        CHANNELS 3 Zrotation Xrotation Yrotation
        JOINT rFoot
        {
          OFFSET 0.73152 -45.1104 -5.12064
          CHANNELS 3 Zrotation Xrotation Yrotation
          End Site
          {
            OFFSET -1.1221 -3.69964 12.103
          }
        }
      }
    }
  }
  JOINT lButtock
  {
    OFFSET 8.77824 4.35084 1.2192
    CHANNELS 3 Zrotation Xrotation Yrotation
    JOINT lThigh
    {
      OFFSET 0 -1.70687 -2.19456
      CHANNELS 3 Zrotation Xrotation Yrotation
      JOINT lShin
      {
        OFFSET 0 -36.8199 0.73152
        CHANNELS 3 Zrotation Xrotation Yrotation
        JOINT lFoot
        {
          OFFSET -0.73152 -45.1104 -5.12064
          CHANNELS 3 Zrotation Xrotation Yrotation
          End Site
          {
            OFFSET 1.1221 -3.69964 12.103
          }
        }
      }
    }
  }
}
MOTION
Frames:	5
Frame Time:	0.00833333
58.9156 82.5285 152.175 -15.2596 48.8519 -4.2165 -9.26411 10.0936 1.10863 2.6399 -6.57726 0.254943 3.78642 5.81076 0.395834 -11.5304 31.4697 6.03381 -0.0 0.0 0.0 -0.0 0.0 0.0 8.58578e-14 -1.19222e-14 4.48558e-13 80.3361 26.9267 16.7742 -13.7557 -6.75902 25.0639 -0.000398347 -0.569899 -0.0800968 -3.79574e-09 -1.46009e-09 -7.31575e-10 -6.56566e-09 -2.54105e-09 -1.25731e-09 -3.79574e-09 -1.46009e-09 -7.31578e-10 7.73091 5.47488 0.417314 -3.79574e-09 -1.4601e-09 -7.31575e-10 2.90554 0.965183 0.102902 -3.79575e-09 -1.4601e-09 -7.31574e-10 10.2786 0.731801 0.0259123 -3.79575e-09 -1.46009e-09 -7.31563e-10 2.22167 -0.733487 -0.20892 8.58979e-14 -1.19315e-14 4.48359e-13 -64.8112 25.1772 -17.3962 13.669 -6.6904 -24.8904 0.438371 -18.4866 2.6932 -2.40595e-09 -1.78434e-09 2.28462e-09 -4.18673e-09 -3.08123e-09 3.9191e-09 -2.40596e-09 -1.78434e-09 2.28463e-09 -7.73091 5.47488 -0.417314 -2.40595e-09 -1.78434e-09 2.28462e-09 -2.90554 0.965183 -0.102902 -2.40595e-09 -1.78434e-09 2.28462e-09 -10.2786 0.731801 -0.0259123 -2.40595e-09 -1.78434e-09 2.28461e-09 -2.22167 -0.733487 0.20892 -2.03217e-16 0.0 -3.88251e-19 5.77763 -27.423 -2.44172 -0.182387 26.82 0.411806 2.06368 -11.4854 6.67724 2.03217e-16 0.0 3.88251e-19 9.88224 -29.918 -27.2026 0.169958 41.858 -1.61471 22.0005 -39.522 31.8838
58.4187 82.5094 153.047 -15.2235 48.7291 -4.1952 -9.28463 10.0454 1.05997 2.67155 -6.55863 0.242589 3.65172 5.85279 0.336054 -11.8932 31.4747 6.04658 -0.0 0.0 0.0 -0.0 0.0 0.0 1.38806e-13 4.97865e-14 8.22443e-13 80.3156 26.9137 16.7344 -13.7657 -6.7668 25.0838 -0.000399035 -0.569499 -0.0800405 -6.46747e-09 -2.453e-09 -1.423e-09 -1.1186e-08 -4.26904e-09 -2.44847e-09 -6.46747e-09 -2.45301e-09 -1.423e-09 7.73091 5.47488 0.417314 -6.46747e-09 -2.453e-09 -1.423e-09 2.90554 0.965183 0.102902 -6.46747e-09 -2.45301e-09 -1.42299e-09 10.2786 0.731801 0.0259123 -6.46748e-09 -2.453e-09 -1.42298e-09 2.22167 -0.733487 -0.20892 1.38837e-13 4.9774e-14 8.22215e-13 -64.7976 25.1423 -17.3933 13.6925 -6.70894 -24.9374 0.437662 -18.4723 2.69096 -4.50374e-09 -3.37652e-09 4.12729e-09 -7.83538e-09 -5.83072e-09 7.07845e-09 -4.50375e-09 -3.37652e-09 4.1273e-09 -7.73091 5.47488 -0.417314 -4.50374e-09 -3.37652e-09 4.12729e-09 -2.90554 0.965183 -0.102902 -4.50374e-09 -3.37653e-09 4.12729e-09 -10.2786 0.731801 -0.0259123 -4.50373e-09 -3.37652e-09 4.12728e-09 -2.22167 -0.733487 0.20892 -2.03217e-16 0.0 -3.88251e-19 5.80682 -27.38 -2.48357 -0.182952 26.8228 0.410072 2.09834 -11.5362 6.78081 2.03217e-16 0.0 3.88251e-19 9.89081 -29.8928 -27.2679 0.170365 41.8837 -1.61655 22.0311 -39.5672 31.8999
57.9235 82.4907 153.914 -15.1787 48.6075 -4.1663 -9.30666 9.99206 1.00447 2.70624 -6.53835 0.228491 3.51179 5.89793 0.278556 -12.2575 31.4771 6.06528 -0.0 0.0 0.0 -0.0 0.0 0.0 2.34122e-13 7.68653e-14 1.29345e-12 80.2922 26.9073 16.6885 -13.7774 -6.77613 25.1072 -0.000418062 -0.583125 -0.0819558 -9.86984e-09 -3.26455e-09 -2.46416e-09 -1.70692e-08 -5.68573e-09 -4.2432e-09 -9.86983e-09 -3.26455e-09 -2.46417e-09 7.73091 5.47488 0.417314 -9.86984e-09 -3.26454e-09 -2.46416e-09 2.90554 0.965183 0.102902 -9.86984e-09 -3.26455e-09 -2.46416e-09 10.2786 0.731801 0.0259123 -9.86985e-09 -3.26454e-09 -2.46415e-09 2.22167 -0.733487 -0.20892 2.3414e-13 7.68454e-14 1.29317e-12 -64.7955 25.0883 -17.3814 13.7102 -6.72301 -24.9729 0.43491 -18.4168 2.68228 -7.23731e-09 -5.41791e-09 6.35558e-09 -1.25867e-08 -9.35475e-09 1.08961e-08 -7.23732e-09 -5.41792e-09 6.35559e-09 -7.73091 5.47488 -0.417314 -7.23731e-09 -5.41792e-09 6.35558e-09 -2.90554 0.965183 -0.102902 -7.23731e-09 -5.41792e-09 6.35557e-09 -10.2786 0.731801 -0.0259123 -7.2373e-09 -5.41792e-09 6.35557e-09 -2.22167 -0.733487 0.20892 -2.03217e-16 0.0 -3.88251e-19 5.83455 -27.3407 -2.52419 -0.183293 26.8317 0.409474 2.13372 -11.5898 6.8847 2.03217e-16 0.0 3.88251e-19 9.89984 -29.8669 -27.3305 0.170755 41.906 -1.61823 22.0536 -39.6118 31.9061
57.4285 82.4722 154.776 -15.1302 48.485 -4.1348 -9.32983 9.93727 0.946049 2.74293 -6.5175 0.213637 3.36947 5.94716 0.223749 -12.6215 31.4738 6.08897 -0.0 0.0 0.0 -0.0 0.0 0.0 3.21412e-13 8.2711e-14 1.65134e-12 80.2692 26.9026 16.638 -13.7889 -6.78532 25.1303 -0.000447102 -0.603458 -0.0848136 -1.24975e-08 -3.77552e-09 -3.36543e-09 -2.16126e-08 -6.57963e-09 -5.79725e-09 -1.24975e-08 -3.77552e-09 -3.36544e-09 7.73091 5.47488 0.417314 -1.24975e-08 -3.77551e-09 -3.36543e-09 2.90554 0.965183 0.102902 -1.24975e-08 -3.77552e-09 -3.36542e-09 10.2786 0.731801 0.0259123 -1.24975e-08 -3.77551e-09 -3.36541e-09 2.22167 -0.733487 -0.20892 3.21412e-13 8.26845e-14 1.65102e-12 -64.8012 25.0274 -17.3632 13.7238 -6.73383 -25.0001 0.431578 -18.3492 2.67171 -9.37566e-09 -7.03374e-09 8.10111e-09 -1.6303e-08 -1.21441e-08 1.38866e-08 -9.37567e-09 -7.03374e-09 8.10113e-09 -7.73091 5.47488 -0.417314 -9.37566e-09 -7.03374e-09 8.10111e-09 -2.90554 0.965183 -0.102902 -9.37566e-09 -7.03374e-09 8.10111e-09 -10.2786 0.731801 -0.0259123 -9.37565e-09 -7.03374e-09 8.1011e-09 -2.22167 -0.733487 0.20892 -2.03217e-16 0.0 -3.88251e-19 5.86598 -27.3025 -2.55429 -0.183553 26.846 0.409318 2.16821 -11.6524 6.98059 2.03217e-16 0.0 3.88251e-19 9.91402 -29.8365 -27.3837 0.171065 41.9219 -1.61938 22.0679 -39.6491 31.9058
56.935 82.4543 155.634 -15.078 48.362 -4.1014 -9.35371 9.8849 0.888635 2.7806 -6.49716 0.199018 3.22761 6.00147 0.172043 -12.9833 31.4615 6.11671 -0.0 0.0 0.0 -0.0 0.0 0.0 3.50284e-13 8.07204e-14 1.68589e-12 80.2497 26.8944 16.5841 -13.7981 -6.7927 25.1488 -0.000476317 -0.623175 -0.0875851 -1.2845e-08 -3.8667e-09 -3.63715e-09 -2.22136e-08 -6.73924e-09 -6.26634e-09 -1.2845e-08 -3.8667e-09 -3.63716e-09 7.73091 5.47488 0.417314 -1.2845e-08 -3.86669e-09 -3.63716e-09 2.90554 0.965183 0.102902 -1.2845e-08 -3.8667e-09 -3.63715e-09 10.2786 0.731801 0.0259123 -1.28451e-08 -3.86669e-09 -3.63714e-09 2.22167 -0.733487 -0.20892 3.50256e-13 8.06932e-14 1.68554e-12 -64.8109 24.9717 -17.3412 13.735 -6.74262 -25.0224 0.429096 -18.2985 2.6638 -9.68779e-09 -7.34922e-09 8.49554e-09 -1.68467e-08 -1.26895e-08 1.45645e-08 -9.6878e-09 -7.34923e-09 8.49555e-09 -7.73091 5.47488 -0.417314 -9.68779e-09 -7.34923e-09 8.49554e-09 -2.90554 0.965183 -0.102902 -9.68779e-09 -7.34922e-09 8.49554e-09 -10.2786 0.731801 -0.0259123 -9.68778e-09 -7.34923e-09 8.49553e-09 -2.22167 -0.733487 0.20892 -2.03217e-16 0.0 -3.88251e-19 5.90623 -27.2627 -2.56458 -0.183872 26.865 0.408908 2.20021 -11.73 7.06019 2.03217e-16 0.0 3.88251e-19 9.93809 -29.7978 -27.4209 0.171232 41.9288 -1.61962 22.0742 -39.6725 31.9021
